<?xml version="1.0" encoding="UTF-8" standalone="no"?><!DOCTYPE svg PUBLIC "-//W3C//DTD SVG 1.1//EN" "http://www.w3.org/Graphics/SVG/1.1/DTD/svg11.dtd"><svg width="100%" height="100%" viewBox="0 0 512 512" version="1.1" xmlns="http://www.w3.org/2000/svg" xmlns:xlink="http://www.w3.org/1999/xlink" style="fill-rule:evenodd;clip-rule:evenodd;stroke-linejoin:round;stroke-miterlimit:2;"><rect x="0" y="0" width="512" height="512" style="fill:none;"/><path d="M241.426,256.04C225.372,239.706 215.474,217.335 215.474,192.631C215.474,142.619 255.99,102.062 306.002,102.022L468.953,102.022L468.953,156.419L306.002,156.419C286.045,156.46 269.871,172.674 269.871,192.631C269.871,212.587 286.045,228.801 306.002,228.842L414.233,228.801L414.233,283.199L306.002,283.199C286.045,283.239 269.871,299.413 269.871,319.41C269.871,339.366 286.045,355.54 306.002,355.581L468.953,355.581L468.953,409.978L306.002,409.978C255.99,409.938 215.474,369.421 215.474,319.41C215.474,294.706 225.372,272.375 241.426,256.04Z" style="fill:#0d13a7;fill-rule:nonzero;"/><rect x="0" y="232" width="130" height="48" style="fill:#ffab1f;"/></svg>