<?xml version="1.0" encoding="UTF-8" standalone="no"?>
<!DOCTYPE svg PUBLIC "-//W3C//DTD SVG 1.1//EN" "http://www.w3.org/Graphics/SVG/1.1/DTD/svg11.dtd">
<svg width="100%" height="100%" viewBox="0 0 512 512" version="1.1" xmlns="http://www.w3.org/2000/svg" xmlns:xlink="http://www.w3.org/1999/xlink">
        <path d="M255.909,512C397.319,512 511.82,397.319 511.82,256.091C512,114.681 397.319,0 255.909,0C114.5,0 0,114.681 0,255.909C0,397.319 114.681,512 255.909,512Z" style="fill-rule:nonzero;"/>
        <path d="M109.985,262.412L88.313,208.232L56.889,208.232L95.898,292.571L74.949,341.333L103.845,341.333L119.196,304.129L161.276,208.412L131.115,208.412L109.985,262.412Z" style="fill:#fff100;fill-rule:nonzero;"/>
        <path d="M253.743,258.257C253.743,222.499 233.696,205.341 206.607,205.341C180.961,205.341 156.941,223.04 156.941,256.271C156.941,287.696 177.349,307.02 207.509,307.02C224.304,307.02 237.308,301.963 247.963,292.21L234.78,273.247C227.013,279.929 219.067,282.639 210.218,282.639C196.492,282.639 188.185,276.679 185.657,263.676L253.561,263.676C253.743,261.869 253.743,260.064 253.743,258.257ZM206.425,227.736C217.803,227.736 223.943,235.321 225.57,246.158L186.017,246.158C188.546,234.78 195.951,227.736 206.425,227.736Z" style="fill:#fff100;fill-rule:nonzero;"/>
        <rect x="265.121" y="170.847" width="27.63" height="133.282" style="fill:#fff100;fill-rule:nonzero;"/>
        <rect x="305.213" y="170.847" width="27.632" height="133.282" style="fill:#fff100;fill-rule:nonzero;"/>
        <path d="M395.694,307.02C422.603,307.02 446.985,289.14 446.985,256.091C446.985,222.679 422.062,205.341 396.055,205.341C368.965,205.341 344.403,222.86 344.403,256.091C344.403,289.321 369.326,307.02 395.694,307.02ZM395.694,283C383.593,283 372.758,273.428 372.758,256.271C372.758,238.753 384.316,229.181 396.055,229.181C407.975,229.181 418.63,238.753 418.63,255.909C418.449,273.428 407.252,283 395.694,283Z" style="fill:#fff100;fill-rule:nonzero;"/>
</svg>
