<?xml version="1.0" standalone="no"?>
<!DOCTYPE svg PUBLIC "-//W3C//DTD SVG 1.1//EN" "http://www.w3.org/Graphics/SVG/1.1/DTD/svg11.dtd">
<svg width="100%" height="100%" viewBox="0 0 178 26" version="1.1" xmlns="http://www.w3.org/2000/svg" xmlns:xlink="http://www.w3.org/1999/xlink" preserveAspectRatio="xMidYMid meet">
<path d="M76.6667,12.76C75.3367,11.4067 74.5167,9.55333 74.5167,7.50667C74.5167,3.36333 77.8733,0.00333214 82.0167,0L95.5167,0L95.5167,4.50667L82.0167,4.50667C80.3633,4.51 79.0233,5.85333 79.0233,7.50667C79.0233,9.16 80.3633,10.5033 82.0167,10.5067L90.9833,10.5033L90.9833,15.01L82.0167,15.01C80.3633,15.0133 79.0233,16.3533 79.0233,18.01C79.0233,19.6633 80.3633,21.0033 82.0167,21.0067L95.5167,21.0067L95.5167,25.5133L82.0167,25.5133C77.8733,25.51 74.5167,22.1533 74.5167,18.01C74.5167,15.9633 75.3367,14.1133 76.6667,12.76ZM111.213,11.9933C112.857,12.0033 114.19,13.34 114.193,14.9867L114.193,25.5133L118.7,25.5133L118.7,14.9867C118.697,10.85 115.347,7.49667 111.213,7.48667L99.1933,7.48667L99.1933,25.5133L103.697,25.5133L103.697,11.9933L111.213,11.9933ZM163.397,23.3667C164.75,24.6967 166.81,25.5133 168.857,25.5133C173,25.5133 176.56,22.0567 176.563,17.9133L176.563,0L172.06,0L172.06,17.9133C172.057,19.5667 170.51,21.01 168.857,21.01C167.203,21.01 165.657,19.5667 165.653,17.9133L165.653,7.51L161.15,7.51L161.15,17.9133C161.147,19.5667 159.6,21.01 157.947,21.01C156.293,21.01 154.747,19.5667 154.743,17.9133L154.743,0L150.237,0L150.237,17.9133C150.24,22.0567 153.803,25.5133 157.947,25.5133C159.993,25.5133 162.043,24.6967 163.397,23.3667ZM127.737,4.50667L138.247,4.50667C139.9,4.51 141.24,5.85333 141.24,7.50667C141.24,9.16 139.9,10.5033 138.247,10.5067L132.24,10.5033L132.24,15.01L138.247,15.01C139.9,15.0133 141.24,16.3533 141.24,18.01C141.24,19.6633 139.9,21.0033 138.247,21.01L123.237,21.01L123.237,25.5133L138.247,25.5133C142.39,25.51 145.747,22.1533 145.747,18.01C145.747,15.9633 144.927,14.1133 143.597,12.7633C144.927,11.4067 145.747,9.55333 145.747,7.50667C145.747,3.36333 142.39,0.00333214 138.247,0L123.237,0L123.237,16.5067L127.737,16.5067L127.737,4.50667Z" style="fill:rgb(13,19,167);fill-rule:nonzero;"/>
            <path d="M67.5233,14.68L67.5233,10.8433L1.91667,10.8433C0.856667,10.8433 0,11.7033 0,12.76C0,13.82 0.856667,14.68 1.91667,14.68L67.5233,14.68Z" style="fill:rgb(255,171,31);fill-rule:nonzero;"/>
</svg>
